<?xml version="1.0" standalone="no"?>
<!DOCTYPE svg PUBLIC "-//W3C//DTD SVG 20010904//EN"
 "http://www.w3.org/TR/2001/REC-SVG-20010904/DTD/svg10.dtd">
<svg version="1.0" xmlns="http://www.w3.org/2000/svg"
 width="64.000000pt" height="64.000000pt" viewBox="0 0 64.000000 64.000000"
 preserveAspectRatio="xMidYMid meet">
<metadata>
Created by potrace 1.16, written by Peter Selinger 2001-2019
</metadata>
<g transform="translate(0.000000,64.000000) scale(0.100000,-0.100000)"
fill="#000000" stroke="none">
<path d="M0 320 l0 -320 320 0 320 0 0 320 0 320 -320 0 -320 0 0 -320z m295
166 c24 -16 25 -18 10 -47 -9 -17 -19 -29 -23 -27 -4 2 -19 10 -34 17 -39 20
-78 -6 -78 -51 0 -56 43 -83 92 -57 18 10 25 8 41 -12 19 -23 19 -24 -8 -46
-38 -33 -113 -32 -154 3 -35 29 -56 91 -46 135 8 34 49 87 79 100 29 12 92 4
121 -15z m209 10 c44 -18 50 -30 30 -60 -15 -25 -17 -25 -46 -10 -59 31 -110
-26 -77 -85 17 -30 61 -40 86 -20 13 11 18 9 35 -11 l20 -24 -27 -23 c-50 -44
-149 -23 -180 37 -8 16 -15 51 -15 79 0 39 6 56 27 81 42 51 86 61 147 36z
m27 -276 c21 -12 25 -50 7 -68 -17 -17 -419 -17 -436 0 -17 17 -15 44 4 62 13
13 46 16 210 16 116 0 203 -4 215 -10z"/>
</g>
</svg>
